<svg width="53" height="62" viewBox="0 0 53 62" fill="none" xmlns="http://www.w3.org/2000/svg">
<g id="bars-solid 1">
<path id="Vector" d="M7 16.8333C7 15.2661 8.21295 14 9.71429 14H42.2857C43.7871 14 45 15.2661 45 16.8333C45 18.4005 43.7871 19.6667 42.2857 19.6667H9.71429C8.21295 19.6667 7 18.4005 7 16.8333ZM7 31C7 29.4328 8.21295 28.1667 9.71429 28.1667H42.2857C43.7871 28.1667 45 29.4328 45 31C45 32.5672 43.7871 33.8333 42.2857 33.8333H9.71429C8.21295 33.8333 7 32.5672 7 31ZM45 45.1667C45 46.7339 43.7871 48 42.2857 48H9.71429C8.21295 48 7 46.7339 7 45.1667C7 43.5995 8.21295 42.3333 9.71429 42.3333H42.2857C43.7871 42.3333 45 43.5995 45 45.1667Z" fill="#F8F1DE"/>
</g>
</svg>
