<svg width="33" height="31" viewBox="0 0 33 31" fill="none" xmlns="http://www.w3.org/2000/svg">
<g id="paperclip-svgrepo-com 1" clip-path="url(#clip0_21_8)">
<path id="Vector" d="M19.6017 5.67657L13.0012 16.806H10.9775L18.0839 4.82395C18.3252 4.4147 18.8623 4.27449 19.2826 4.51322C19.699 4.74438 19.843 5.26731 19.6017 5.67657Z" fill="#5C6670"/>
<path id="Vector_2" d="M27.7551 10.2579L17.8271 27.0033C15.9512 30.1674 11.7792 31.255 8.52954 29.4285C5.27989 27.602 4.16294 23.5398 6.03879 20.3756L16.5155 2.70189C18.045 0.121319 21.4503 -0.769189 24.1007 0.723831C26.751 2.21306 27.6656 5.52878 26.1322 8.10935L20.9794 16.806H18.9557L24.6183 7.25674C25.6652 5.49089 25.0425 3.22104 23.2289 2.20169C21.4153 1.18235 19.0841 1.78865 18.0372 3.55451L7.55659 21.2282C6.16333 23.5776 6.99228 26.594 9.4052 27.9506C11.8181 29.3072 14.916 28.5001 16.3093 26.1506L26.2373 9.40912C26.4786 8.99986 27.0156 8.85965 27.4359 9.09839C27.8524 9.32954 27.9964 9.85247 27.7551 10.2579Z" fill="#5C6670"/>
</g>
<defs>
<clipPath id="clip0_21_8">
<rect width="31.1345" height="30.3151" fill="white" transform="translate(0.932739)"/>
</clipPath>
</defs>
</svg>
